<svg width="236" height="53" viewBox="0 0 236 53" fill="none" xmlns="http://www.w3.org/2000/svg">
<rect width="53" height="53" rx="26.5" fill="#FA6D8B"/>
<rect width="53" height="53" rx="5" fill="#FA6D8B"/>
<path fill-rule="evenodd" clip-rule="evenodd" d="M35.64 12.4539C32.8611 10.4672 29.4571 9.29824 25.7802 9.29824C16.4209 9.29824 8.83333 16.8725 8.83333 26.2153C8.83333 35.5582 16.4209 43.1324 25.7802 43.1324C29.4571 43.1324 32.8641 41.9634 35.64 39.9737C37.4725 38.6624 39.0318 36.9967 40.2181 35.0766C41.8078 32.4994 42.727 29.4649 42.727 26.2153C42.727 22.9658 41.8078 19.9312 40.2181 17.354C39.0318 15.4309 37.4725 13.7652 35.64 12.4539V12.4539ZM42.7998 35.4037C45.0964 35.4037 46.9561 37.2602 46.9561 39.5527C46.9561 41.8453 45.0934 43.7018 42.7998 43.7018C40.5032 43.7018 38.6435 41.8453 38.6435 39.5527C38.6435 37.2632 40.5032 35.4037 42.7998 35.4037V35.4037ZM34.9119 18.8985V23.1868V25.6036V26.821V29.2377V33.5261V33.6714C34.9119 35.6248 33.4223 37.2238 31.4655 37.2238C29.5087 37.2238 28.0191 35.6248 28.0191 33.6714V33.5261V32.3086V29.2377V29.2317H23.5625H23.4532V32.1663V33.5291V33.6745C23.4532 35.6278 21.9636 37.2269 20.0068 37.2269C18.05 37.2269 16.5604 35.6278 16.5604 33.6745V33.5291V29.0924V26.6787V25.7489V23.3352V18.8985V18.7532C16.5604 16.7998 18.05 15.2007 20.0068 15.2007C21.9636 15.2007 23.4532 16.7998 23.4532 18.7532V18.8985V20.2613V23.1959H23.5625H28.0161V23.1899V20.119V18.9015V18.7562C28.0161 16.8028 29.5057 15.2038 31.4625 15.2038C33.4193 15.2038 34.9089 16.8028 34.9089 18.7562V18.8985H34.9119Z" fill="white"/>
<path d="M87.0469 26.9043C87.0469 31.1465 85.8926 34.3926 83.584 36.6426C81.2871 38.8809 77.9766 40 73.6523 40H66.5332V14.3008H74.4082C78.4043 14.3008 81.5098 15.4082 83.7246 17.623C85.9395 19.8379 87.0469 22.9316 87.0469 26.9043ZM83.8828 27.0098C83.8828 23.6582 83.0391 21.1328 81.3516 19.4336C79.6758 17.7344 77.1797 16.8848 73.8633 16.8848H69.5215V37.416H73.1602C76.7227 37.416 79.4004 36.543 81.1934 34.7969C82.9863 33.0391 83.8828 30.4434 83.8828 27.0098ZM100.494 40.3516C97.6465 40.3516 95.3965 39.4844 93.7441 37.75C92.1035 36.0156 91.2832 33.6074 91.2832 30.5254C91.2832 27.4199 92.0449 24.9531 93.5684 23.125C95.1035 21.2969 97.1602 20.3828 99.7383 20.3828C102.152 20.3828 104.062 21.1797 105.469 22.7734C106.875 24.3555 107.578 26.4473 107.578 29.0488V30.8945H94.3066C94.3652 33.1562 94.9336 34.873 96.0117 36.0449C97.1016 37.2168 98.6309 37.8027 100.6 37.8027C102.674 37.8027 104.725 37.3691 106.752 36.502V39.1035C105.721 39.5488 104.742 39.8652 103.816 40.0527C102.902 40.252 101.795 40.3516 100.494 40.3516ZM99.7031 22.8262C98.1562 22.8262 96.9199 23.3301 95.9941 24.3379C95.0801 25.3457 94.541 26.7402 94.377 28.5215H104.449C104.449 26.6816 104.039 25.2754 103.219 24.3027C102.398 23.3184 101.227 22.8262 99.7031 22.8262ZM116.789 40L109.477 20.7344H112.605L116.754 32.1602C117.691 34.832 118.242 36.5664 118.406 37.3633H118.547C118.676 36.7422 119.08 35.459 119.76 33.5137C120.451 31.5566 121.992 27.2969 124.383 20.7344H127.512L120.199 40H116.789ZM138.744 40.3516C135.896 40.3516 133.646 39.4844 131.994 37.75C130.354 36.0156 129.533 33.6074 129.533 30.5254C129.533 27.4199 130.295 24.9531 131.818 23.125C133.354 21.2969 135.41 20.3828 137.988 20.3828C140.402 20.3828 142.312 21.1797 143.719 22.7734C145.125 24.3555 145.828 26.4473 145.828 29.0488V30.8945H132.557C132.615 33.1562 133.184 34.873 134.262 36.0449C135.352 37.2168 136.881 37.8027 138.85 37.8027C140.924 37.8027 142.975 37.3691 145.002 36.502V39.1035C143.971 39.5488 142.992 39.8652 142.066 40.0527C141.152 40.252 140.045 40.3516 138.744 40.3516ZM137.953 22.8262C136.406 22.8262 135.17 23.3301 134.244 24.3379C133.33 25.3457 132.791 26.7402 132.627 28.5215H142.699C142.699 26.6816 142.289 25.2754 141.469 24.3027C140.648 23.3184 139.477 22.8262 137.953 22.8262ZM153.738 40H150.82V12.6484H153.738V40ZM176.555 30.3496C176.555 33.4902 175.764 35.9453 174.182 37.7148C172.6 39.4727 170.414 40.3516 167.625 40.3516C165.902 40.3516 164.373 39.9473 163.037 39.1387C161.701 38.3301 160.67 37.1699 159.943 35.6582C159.217 34.1465 158.854 32.377 158.854 30.3496C158.854 27.209 159.639 24.7656 161.209 23.0195C162.779 21.2617 164.959 20.3828 167.748 20.3828C170.443 20.3828 172.582 21.2793 174.164 23.0723C175.758 24.8652 176.555 27.291 176.555 30.3496ZM161.877 30.3496C161.877 32.8105 162.369 34.6855 163.354 35.9746C164.338 37.2637 165.785 37.9082 167.695 37.9082C169.605 37.9082 171.053 37.2695 172.037 35.9922C173.033 34.7031 173.531 32.8223 173.531 30.3496C173.531 27.9004 173.033 26.043 172.037 24.7773C171.053 23.5 169.594 22.8613 167.66 22.8613C165.75 22.8613 164.309 23.4883 163.336 24.7422C162.363 25.9961 161.877 27.8652 161.877 30.3496ZM190.652 40.3516C189.398 40.3516 188.25 40.123 187.207 39.666C186.176 39.1973 185.309 38.4824 184.605 37.5215H184.395C184.535 38.6465 184.605 39.7129 184.605 40.7207V48.6484H181.688V20.7344H184.061L184.465 23.3711H184.605C185.355 22.3164 186.229 21.5547 187.225 21.0859C188.221 20.6172 189.363 20.3828 190.652 20.3828C193.207 20.3828 195.176 21.2559 196.559 23.002C197.953 24.748 198.65 27.1973 198.65 30.3496C198.65 33.5137 197.941 35.9746 196.523 37.7324C195.117 39.4785 193.16 40.3516 190.652 40.3516ZM190.23 22.8613C188.262 22.8613 186.838 23.4062 185.959 24.4961C185.08 25.5859 184.629 27.3203 184.605 29.6992V30.3496C184.605 33.0566 185.057 34.9961 185.959 36.168C186.861 37.3281 188.309 37.9082 190.301 37.9082C191.965 37.9082 193.266 37.2344 194.203 35.8867C195.152 34.5391 195.627 32.6816 195.627 30.3145C195.627 27.9121 195.152 26.0723 194.203 24.7949C193.266 23.5059 191.941 22.8613 190.23 22.8613ZM211.904 40.3516C209.057 40.3516 206.807 39.4844 205.154 37.75C203.514 36.0156 202.693 33.6074 202.693 30.5254C202.693 27.4199 203.455 24.9531 204.979 23.125C206.514 21.2969 208.57 20.3828 211.148 20.3828C213.562 20.3828 215.473 21.1797 216.879 22.7734C218.285 24.3555 218.988 26.4473 218.988 29.0488V30.8945H205.717C205.775 33.1562 206.344 34.873 207.422 36.0449C208.512 37.2168 210.041 37.8027 212.01 37.8027C214.084 37.8027 216.135 37.3691 218.162 36.502V39.1035C217.131 39.5488 216.152 39.8652 215.227 40.0527C214.312 40.252 213.205 40.3516 211.904 40.3516ZM211.113 22.8262C209.566 22.8262 208.33 23.3301 207.404 24.3379C206.49 25.3457 205.951 26.7402 205.787 28.5215H215.859C215.859 26.6816 215.449 25.2754 214.629 24.3027C213.809 23.3184 212.637 22.8262 211.113 22.8262ZM232.77 20.3828C233.625 20.3828 234.393 20.4531 235.072 20.5938L234.668 23.3008C233.871 23.125 233.168 23.0371 232.559 23.0371C231 23.0371 229.664 23.6699 228.551 24.9355C227.449 26.2012 226.898 27.7773 226.898 29.6641V40H223.98V20.7344H226.389L226.723 24.3027H226.863C227.578 23.0488 228.439 22.082 229.447 21.4023C230.455 20.7227 231.562 20.3828 232.77 20.3828Z" fill="#587292"/>
</svg>
